<svg width="52" height="40" viewBox="0 0 52 40" fill="none" xmlns="http://www.w3.org/2000/svg">
<g clip-path="url(#clip0_427_5)">
<path d="M49.8333 14.1696C49.7896 14.245 49.7383 14.3172 49.7036 14.3961C46.8077 20.94 43.9132 27.4845 41.0187 34.029C40.4606 35.2907 39.7971 36.4916 38.8699 37.5364C37.8391 38.6978 36.5962 39.5291 35.0346 39.8537C34.2894 40.0083 33.5362 40.0369 32.7817 39.9563C32.301 39.9051 31.8244 39.8186 31.3457 39.7487C31.1973 39.7272 31.1502 39.6544 31.1515 39.502C31.1601 38.5498 31.1559 37.5975 31.1559 36.6452V36.4699C31.5827 36.5782 31.9887 36.7011 32.4032 36.782C33.5305 37.0021 34.6023 36.9118 35.5328 36.1671C36.0569 35.748 36.4302 35.2142 36.7273 34.6263C37.0095 34.0684 37.2831 33.5062 37.5722 32.9517C37.6449 32.8121 37.6472 32.6992 37.5851 32.5566C34.9966 26.6378 32.4115 20.7181 29.8262 14.7979C29.7341 14.587 29.645 14.3746 29.5461 14.1428C29.6334 14.1391 29.6965 14.1339 29.7598 14.1339C31.0568 14.1334 32.3538 14.1369 33.6508 14.1296C33.8168 14.1289 33.8854 14.1837 33.9467 14.3311C35.8839 18.9721 37.8267 23.6108 39.7688 28.2497C39.7935 28.3082 39.8216 28.3654 39.8676 28.4662C39.9113 28.3773 39.9426 28.3214 39.9667 28.2629C41.8623 23.6203 43.7582 18.978 45.6477 14.3331C45.713 14.1724 45.7938 14.1291 45.9626 14.13C47.253 14.1363 48.5433 14.1322 49.8339 14.1313V14.1696H49.8333Z" fill="#067EB8"/>
<path d="M26.644 0C26.713 0.0163394 26.7811 0.0447477 26.8507 0.0475328C29.178 0.136471 31.4394 0.573736 33.6522 1.26946C36.5045 2.16646 39.1483 3.48215 41.6441 5.0914C43.4543 6.25892 45.159 7.55995 46.7707 8.97721C47.3621 9.4971 47.9424 10.0292 48.5124 10.5718C48.0113 10.2244 47.5171 9.86696 47.0078 9.53145C44.4404 7.83865 41.6545 6.59017 38.7121 5.66551C36.9518 5.11219 35.1621 4.66917 33.3347 4.38695C32.2748 4.22318 31.2109 4.07167 30.1435 3.96862C29.0862 3.8665 28.0227 3.82287 26.961 3.77162C26.3306 3.74117 25.6978 3.72539 25.067 3.73931C24.1803 3.75881 23.2921 3.78554 22.4088 3.85759C21.3451 3.9443 20.2807 4.0492 19.2252 4.20294C14.7799 4.85002 10.5331 6.10723 6.57065 8.21408C5.26909 8.90647 4.02641 9.68927 2.84528 10.5649C2.82078 10.5831 2.79456 10.5991 2.75031 10.5957C3.28218 10.1104 3.80702 9.61704 4.34763 9.14116C5.91436 7.76252 7.55822 6.47876 9.30693 5.32591C12.2957 3.35589 15.4867 1.80625 18.9799 0.88697C20.0617 0.60233 21.1553 0.367265 22.2699 0.245834C23.0058 0.165622 23.7447 0.11419 24.482 0.0471615C24.5452 0.0415912 24.6066 0.0163394 24.6687 0.000185675H26.644V0Z" fill="#E66D00"/>
<path d="M28.9889 28.1262C28.9933 28.2172 28.9983 28.2731 28.9983 28.3286C28.9988 29.3582 28.9964 30.3878 29.0013 31.4173C29.0019 31.5467 28.9643 31.6262 28.8505 31.6994C27.6653 32.4608 26.3617 32.9254 24.9781 33.195C23.6837 33.4471 22.3742 33.5422 21.0584 33.4978C19.1516 33.4336 17.3408 33.0229 15.7382 31.9513C14.089 30.8486 13.0186 29.3331 12.4337 27.4784C12.1684 26.6366 11.9889 25.7752 11.9604 24.8947C11.9334 24.0609 11.8811 23.2172 11.9723 22.3918C12.3819 18.6872 14.2841 15.9911 17.7796 14.4301C18.6917 14.0227 19.6677 13.8209 20.6694 13.7461C21.9814 13.6482 23.2833 13.6987 24.5556 14.0506C27.4936 14.8627 29.2433 16.798 30.0301 19.6299C30.3245 20.6903 30.3988 21.7771 30.4178 22.8688C30.4269 23.3835 30.4197 23.8982 30.4189 24.4131C30.4189 24.4759 30.4128 24.5386 30.4083 24.6235H15.9695C16.0138 26.8863 17.0895 29.3979 20.1001 30.1978C21.0325 30.4455 21.9833 30.4967 22.9496 30.4453C25.1646 30.327 27.0976 29.518 28.8442 28.2243C28.8799 28.1973 28.9183 28.1736 28.9889 28.1262ZM26.4362 21.542C26.3748 21.1185 26.3359 20.7109 26.2544 20.3119C26.034 19.2331 25.542 18.3014 24.6346 17.6166C23.9614 17.1081 23.1853 16.8595 22.3444 16.7781C21.3011 16.6769 20.282 16.7546 19.3224 17.1965C17.7541 17.9184 16.7778 19.1427 16.2478 20.7306C16.1612 20.99 16.1019 21.2583 16.0248 21.542H26.4362Z" fill="#067EB8"/>
<path d="M1.5 14.1334H1.72263C2.86805 14.1334 4.01366 14.1382 5.15908 14.1289C5.35625 14.1273 5.3988 14.1893 5.39633 14.3697C5.38664 15.1097 5.39215 15.8496 5.39215 16.5895V16.8114L5.43413 16.8372C7.01056 14.3365 9.27613 13.4039 12.2098 13.9538V17.4989C11.8931 17.3976 11.5799 17.2631 11.2524 17.1981C9.4809 16.8467 7.95596 17.2284 6.80047 18.6707C6.29918 19.2965 5.95916 19.9983 5.73711 20.759C5.46794 21.6805 5.39538 22.6262 5.39405 23.5774C5.3893 26.6466 5.39215 29.7158 5.39215 32.7848V33.0645H1.5V14.1334Z" fill="#067EB8"/>
</g>
<defs>
<clipPath id="clip0_427_5">
<rect width="52" height="40" fill="white"/>
</clipPath>
</defs>
</svg>
