<svg width="32" height="33" viewBox="0 0 32 33" fill="none" xmlns="http://www.w3.org/2000/svg">
<path fill-rule="evenodd" clip-rule="evenodd" d="M7.84484 33H23.3514C27.677 33 31.1945 29.4825 31.1945 25.1604V8.83875C31.1945 4.51494 27.6752 0.997437 23.3497 0.997437H7.84484C3.51926 0.997437 0 4.51494 0 8.83875V25.1587C0 29.4825 3.51926 33 7.84484 33ZM2.71647 8.83875C2.71647 6.00961 5.01746 3.70686 7.84484 3.70686H23.3497C26.177 3.70686 28.478 6.00961 28.478 8.83875V25.1604C28.478 27.9896 26.177 30.2923 23.3497 30.2923H7.84484C5.01746 30.2923 2.71647 27.9896 2.71647 25.1604V8.83875ZM17.76 26.7202H20.3902C20.6243 26.7202 20.8162 26.5301 20.8162 26.2959V16.6131H23.5837C23.8196 16.6131 24.0098 16.423 24.0098 16.1871V13.6572C24.0098 13.4213 23.8196 13.2312 23.5837 13.2312H20.8162V12.4425C20.8162 11.527 21.2141 11.1362 22.1489 11.1362C22.6824 11.1362 23.0961 11.2436 23.5362 11.4988C23.6665 11.5745 23.8302 11.5745 23.9622 11.4988C24.0943 11.4231 24.1753 11.2823 24.1753 11.1291V8.67498C24.1753 8.51654 24.0872 8.37217 23.9464 8.29823C23.1823 7.8986 22.4764 7.72783 21.5856 7.72783C18.8832 7.72783 17.3339 9.38271 17.3339 12.2682V13.2294H15.7389C15.503 13.2294 15.3129 13.4196 15.3129 13.6555V16.1853C15.3129 16.4212 15.503 16.6114 15.7389 16.6114H17.3339V26.2942C17.3339 26.5301 17.5241 26.7202 17.76 26.7202Z" fill="#007DB7"/>
</svg>
