<svg width="32" height="33" viewBox="0 0 32 33" fill="none" xmlns="http://www.w3.org/2000/svg">
<path fill-rule="evenodd" clip-rule="evenodd" d="M8.62657 33H24.1332C28.4587 33 31.9762 29.4825 31.9762 25.1604V8.83875C31.9762 4.51494 28.457 0.997437 24.1314 0.997437H8.62657C4.301 0.997437 0.781738 4.51494 0.781738 8.83875V25.1587C0.781738 29.4825 4.301 33 8.62657 33ZM3.49821 8.83875C3.49821 6.00961 5.79919 3.70686 8.62657 3.70686H24.1314C26.9588 3.70686 29.2598 6.00961 29.2598 8.83875V25.1604C29.2598 27.9896 26.9588 30.2923 24.1314 30.2923H8.62657C5.79919 30.2923 3.49821 27.9896 3.49821 25.1604V8.83875ZM8.75691 17.2293C8.75691 21.4158 12.1653 24.8224 16.3535 24.8224C20.5418 24.8224 23.9501 21.4158 23.9501 17.2293C23.9501 13.0428 20.5418 9.63621 16.3535 9.63621C12.1653 9.63621 8.75691 13.0428 8.75691 17.2293ZM11.4734 17.2293C11.4734 14.5375 13.6617 12.3456 16.3535 12.3456C19.0453 12.3456 21.2337 14.5375 21.2337 17.2293C21.2337 19.9211 19.0453 22.1129 16.3535 22.1129C13.6617 22.1129 11.4734 19.9229 11.4734 17.2293ZM22.1732 8.78593C22.1732 10.0236 23.1803 11.0306 24.4179 11.0306C25.6591 11.0306 26.6696 10.0236 26.6696 8.78593C26.6696 7.5483 25.6591 6.54128 24.4179 6.54128C23.1803 6.54128 22.1732 7.5483 22.1732 8.78593Z" fill="#007DB7"/>
</svg>
